%FSLAX45Y45*%
G04 Gerber Fmt 4.5, Leading zero omitted, Abs format (unit mm)*
G04 Created by KiCad (PCBNEW (5.0.2)-1) date 27.02.2019 21:34:36*
%MOMM*%
%LPD*%
G01*
G04 APERTURE LIST*
%ADD10C,0.150000*%
%ADD11C,0.200000*%
%ADD12C,0.300000*%
G04 APERTURE END LIST*
D10*
X10250000Y-10600000D02*
G75*
G03X10250000Y-10600000I-150000J0D01*
G01*
X10250000Y-12200000D02*
G75*
G03X10250000Y-12200000I-150000J0D01*
G01*
X10500000Y-11400000D02*
G75*
G03X10500000Y-11400000I-400000J0D01*
G01*
X9200000Y-10800000D02*
X10000000Y-10000000D01*
X9200000Y-12000000D02*
X9200000Y-10800000D01*
X10000000Y-12800000D02*
X9200000Y-12000000D01*
X13200000Y-12800000D02*
X10000000Y-12800000D01*
X13500000Y-12500000D02*
X13200000Y-12800000D01*
X13500000Y-10300000D02*
X13500000Y-12500000D01*
X13200000Y-10000000D02*
X13500000Y-10300000D01*
X10000000Y-10000000D02*
X13200000Y-10000000D01*
D11*
D12*
X9478928Y-13273214D02*
X9478928Y-12973214D01*
X9550357Y-12973214D01*
X9593214Y-12987500D01*
X9621786Y-13016071D01*
X9636071Y-13044643D01*
X9650357Y-13101786D01*
X9650357Y-13144643D01*
X9636071Y-13201786D01*
X9621786Y-13230357D01*
X9593214Y-13258929D01*
X9550357Y-13273214D01*
X9478928Y-13273214D01*
X9778928Y-13273214D02*
X9778928Y-13073214D01*
X9778928Y-13130357D02*
X9793214Y-13101786D01*
X9807500Y-13087500D01*
X9836071Y-13073214D01*
X9864643Y-13073214D01*
X9964643Y-13273214D02*
X9964643Y-13073214D01*
X9964643Y-12973214D02*
X9950357Y-12987500D01*
X9964643Y-13001786D01*
X9978928Y-12987500D01*
X9964643Y-12973214D01*
X9964643Y-13001786D01*
X10150357Y-13273214D02*
X10121786Y-13258929D01*
X10107500Y-13230357D01*
X10107500Y-12973214D01*
X10307500Y-13273214D02*
X10278928Y-13258929D01*
X10264643Y-13230357D01*
X10264643Y-12973214D01*
X10650357Y-13273214D02*
X10650357Y-12973214D01*
X10750357Y-13187500D01*
X10850357Y-12973214D01*
X10850357Y-13273214D01*
X11121786Y-13273214D02*
X11121786Y-13116071D01*
X11107500Y-13087500D01*
X11078928Y-13073214D01*
X11021786Y-13073214D01*
X10993214Y-13087500D01*
X11121786Y-13258929D02*
X11093214Y-13273214D01*
X11021786Y-13273214D01*
X10993214Y-13258929D01*
X10978928Y-13230357D01*
X10978928Y-13201786D01*
X10993214Y-13173214D01*
X11021786Y-13158929D01*
X11093214Y-13158929D01*
X11121786Y-13144643D01*
X11264643Y-13073214D02*
X11264643Y-13373214D01*
X11264643Y-13087500D02*
X11293214Y-13073214D01*
X11350357Y-13073214D01*
X11378928Y-13087500D01*
X11393214Y-13101786D01*
X11407500Y-13130357D01*
X11407500Y-13216071D01*
X11393214Y-13244643D01*
X11378928Y-13258929D01*
X11350357Y-13273214D01*
X11293214Y-13273214D01*
X11264643Y-13258929D01*
X11536071Y-13244643D02*
X11550357Y-13258929D01*
X11536071Y-13273214D01*
X11521786Y-13258929D01*
X11536071Y-13244643D01*
X11536071Y-13273214D01*
X11536071Y-13087500D02*
X11550357Y-13101786D01*
X11536071Y-13116071D01*
X11521786Y-13101786D01*
X11536071Y-13087500D01*
X11536071Y-13116071D01*
M02*
