%FSLAX45Y45*%
G04 Gerber Fmt 4.5, Leading zero omitted, Abs format (unit mm)*
G04 Created by KiCad (PCBNEW (5.0.2)-1) date 27.02.2019 21:34:36*
%MOMM*%
%LPD*%
G01*
G04 APERTURE LIST*
%ADD10C,0.150000*%
%ADD11C,0.200000*%
%ADD12C,0.300000*%
G04 APERTURE END LIST*
D10*
X10250000Y-10600000D02*
G75*
G03X10250000Y-10600000I-150000J0D01*
G01*
X10250000Y-12200000D02*
G75*
G03X10250000Y-12200000I-150000J0D01*
G01*
X10500000Y-11400000D02*
G75*
G03X10500000Y-11400000I-400000J0D01*
G01*
X9200000Y-10800000D02*
X10000000Y-10000000D01*
X9200000Y-12000000D02*
X9200000Y-10800000D01*
X10000000Y-12800000D02*
X9200000Y-12000000D01*
X13200000Y-12800000D02*
X10000000Y-12800000D01*
X13500000Y-12500000D02*
X13200000Y-12800000D01*
X13500000Y-10300000D02*
X13500000Y-12500000D01*
X13200000Y-10000000D02*
X13500000Y-10300000D01*
X10000000Y-10000000D02*
X13200000Y-10000000D01*
D11*
X9480000Y-11710000D02*
X9520000Y-11750000D01*
X9520000Y-11710000D02*
X9480000Y-11750000D01*
X9590000Y-10650000D02*
X9630000Y-10690000D01*
X9630000Y-10650000D02*
X9590000Y-10690000D01*
X10280000Y-10880000D02*
X10320000Y-10920000D01*
X10320000Y-10880000D02*
X10280000Y-10920000D01*
X10560000Y-11690000D02*
X10600000Y-11730000D01*
X10600000Y-11690000D02*
X10560000Y-11730000D01*
X10590000Y-11870000D02*
X10630000Y-11910000D01*
X10630000Y-11870000D02*
X10590000Y-11910000D01*
X10800000Y-10500000D02*
X10840000Y-10540000D01*
X10840000Y-10500000D02*
X10800000Y-10540000D01*
X10978750Y-11220000D02*
X11018750Y-11260000D01*
X11018750Y-11220000D02*
X10978750Y-11260000D01*
X11020000Y-10690000D02*
X11060000Y-10730000D01*
X11060000Y-10690000D02*
X11020000Y-10730000D01*
X11140000Y-12310000D02*
X11180000Y-12350000D01*
X11180000Y-12310000D02*
X11140000Y-12350000D01*
X11210000Y-10660000D02*
X11250000Y-10700000D01*
X11250000Y-10660000D02*
X11210000Y-10700000D01*
X11440000Y-10430000D02*
X11480000Y-10470000D01*
X11480000Y-10430000D02*
X11440000Y-10470000D01*
X11510000Y-12410000D02*
X11550000Y-12450000D01*
X11550000Y-12410000D02*
X11510000Y-12450000D01*
X11550000Y-10180000D02*
X11590000Y-10220000D01*
X11590000Y-10180000D02*
X11550000Y-10220000D01*
X11700000Y-10850000D02*
X11740000Y-10890000D01*
X11740000Y-10850000D02*
X11700000Y-10890000D01*
X11750000Y-10710000D02*
X11790000Y-10750000D01*
X11790000Y-10710000D02*
X11750000Y-10750000D01*
X11910000Y-10710000D02*
X11950000Y-10750000D01*
X11950000Y-10710000D02*
X11910000Y-10750000D01*
X12000000Y-10520000D02*
X12040000Y-10560000D01*
X12040000Y-10520000D02*
X12000000Y-10560000D01*
X12290000Y-10660000D02*
X12330000Y-10700000D01*
X12330000Y-10660000D02*
X12290000Y-10700000D01*
X12370000Y-10800000D02*
X12410000Y-10840000D01*
X12410000Y-10800000D02*
X12370000Y-10840000D01*
X12470000Y-12130000D02*
X12510000Y-12170000D01*
X12510000Y-12130000D02*
X12470000Y-12170000D01*
X12540000Y-12320000D02*
X12580000Y-12360000D01*
X12580000Y-12320000D02*
X12540000Y-12360000D01*
X13160000Y-10470000D02*
X13200000Y-10510000D01*
X13200000Y-10470000D02*
X13160000Y-10510000D01*
X13200000Y-11300000D02*
X13240000Y-11340000D01*
X13240000Y-11300000D02*
X13200000Y-11340000D01*
X13200000Y-11680000D02*
X13240000Y-11720000D01*
X13240000Y-11680000D02*
X13200000Y-11720000D01*
X12880000Y-11276000D02*
G75*
G03X12880000Y-11276000I-50000J0D01*
G01*
X12880000Y-11530000D02*
G75*
G03X12880000Y-11530000I-50000J0D01*
G01*
D12*
X9478928Y-13273214D02*
X9478928Y-12973214D01*
X9550357Y-12973214D01*
X9593214Y-12987500D01*
X9621786Y-13016071D01*
X9636071Y-13044643D01*
X9650357Y-13101786D01*
X9650357Y-13144643D01*
X9636071Y-13201786D01*
X9621786Y-13230357D01*
X9593214Y-13258929D01*
X9550357Y-13273214D01*
X9478928Y-13273214D01*
X9778928Y-13273214D02*
X9778928Y-13073214D01*
X9778928Y-13130357D02*
X9793214Y-13101786D01*
X9807500Y-13087500D01*
X9836071Y-13073214D01*
X9864643Y-13073214D01*
X9964643Y-13273214D02*
X9964643Y-13073214D01*
X9964643Y-12973214D02*
X9950357Y-12987500D01*
X9964643Y-13001786D01*
X9978928Y-12987500D01*
X9964643Y-12973214D01*
X9964643Y-13001786D01*
X10150357Y-13273214D02*
X10121786Y-13258929D01*
X10107500Y-13230357D01*
X10107500Y-12973214D01*
X10307500Y-13273214D02*
X10278928Y-13258929D01*
X10264643Y-13230357D01*
X10264643Y-12973214D01*
X10650357Y-13273214D02*
X10650357Y-12973214D01*
X10750357Y-13187500D01*
X10850357Y-12973214D01*
X10850357Y-13273214D01*
X11121786Y-13273214D02*
X11121786Y-13116071D01*
X11107500Y-13087500D01*
X11078928Y-13073214D01*
X11021786Y-13073214D01*
X10993214Y-13087500D01*
X11121786Y-13258929D02*
X11093214Y-13273214D01*
X11021786Y-13273214D01*
X10993214Y-13258929D01*
X10978928Y-13230357D01*
X10978928Y-13201786D01*
X10993214Y-13173214D01*
X11021786Y-13158929D01*
X11093214Y-13158929D01*
X11121786Y-13144643D01*
X11264643Y-13073214D02*
X11264643Y-13373214D01*
X11264643Y-13087500D02*
X11293214Y-13073214D01*
X11350357Y-13073214D01*
X11378928Y-13087500D01*
X11393214Y-13101786D01*
X11407500Y-13130357D01*
X11407500Y-13216071D01*
X11393214Y-13244643D01*
X11378928Y-13258929D01*
X11350357Y-13273214D01*
X11293214Y-13273214D01*
X11264643Y-13258929D01*
X11536071Y-13244643D02*
X11550357Y-13258929D01*
X11536071Y-13273214D01*
X11521786Y-13258929D01*
X11536071Y-13244643D01*
X11536071Y-13273214D01*
X11536071Y-13087500D02*
X11550357Y-13101786D01*
X11536071Y-13116071D01*
X11521786Y-13101786D01*
X11536071Y-13087500D01*
X11536071Y-13116071D01*
X9152500Y-13747500D02*
X9192500Y-13787500D01*
X9192500Y-13747500D02*
X9152500Y-13787500D01*
X9536071Y-13603214D02*
X9564643Y-13603214D01*
X9593214Y-13617500D01*
X9607500Y-13631786D01*
X9621786Y-13660357D01*
X9636071Y-13717500D01*
X9636071Y-13788929D01*
X9621786Y-13846071D01*
X9607500Y-13874643D01*
X9593214Y-13888929D01*
X9564643Y-13903214D01*
X9536071Y-13903214D01*
X9507500Y-13888929D01*
X9493214Y-13874643D01*
X9478928Y-13846071D01*
X9464643Y-13788929D01*
X9464643Y-13717500D01*
X9478928Y-13660357D01*
X9493214Y-13631786D01*
X9507500Y-13617500D01*
X9536071Y-13603214D01*
X9764643Y-13874643D02*
X9778928Y-13888929D01*
X9764643Y-13903214D01*
X9750357Y-13888929D01*
X9764643Y-13874643D01*
X9764643Y-13903214D01*
X10036071Y-13703214D02*
X10036071Y-13903214D01*
X9964643Y-13588929D02*
X9893214Y-13803214D01*
X10078928Y-13803214D01*
X10250357Y-13603214D02*
X10278928Y-13603214D01*
X10307500Y-13617500D01*
X10321786Y-13631786D01*
X10336071Y-13660357D01*
X10350357Y-13717500D01*
X10350357Y-13788929D01*
X10336071Y-13846071D01*
X10321786Y-13874643D01*
X10307500Y-13888929D01*
X10278928Y-13903214D01*
X10250357Y-13903214D01*
X10221786Y-13888929D01*
X10207500Y-13874643D01*
X10193214Y-13846071D01*
X10178928Y-13788929D01*
X10178928Y-13717500D01*
X10193214Y-13660357D01*
X10207500Y-13631786D01*
X10221786Y-13617500D01*
X10250357Y-13603214D01*
X10478928Y-13903214D02*
X10478928Y-13703214D01*
X10478928Y-13731786D02*
X10493214Y-13717500D01*
X10521786Y-13703214D01*
X10564643Y-13703214D01*
X10593214Y-13717500D01*
X10607500Y-13746071D01*
X10607500Y-13903214D01*
X10607500Y-13746071D02*
X10621786Y-13717500D01*
X10650357Y-13703214D01*
X10693214Y-13703214D01*
X10721786Y-13717500D01*
X10736071Y-13746071D01*
X10736071Y-13903214D01*
X10878928Y-13903214D02*
X10878928Y-13703214D01*
X10878928Y-13731786D02*
X10893214Y-13717500D01*
X10921786Y-13703214D01*
X10964643Y-13703214D01*
X10993214Y-13717500D01*
X11007500Y-13746071D01*
X11007500Y-13903214D01*
X11007500Y-13746071D02*
X11021786Y-13717500D01*
X11050357Y-13703214D01*
X11093214Y-13703214D01*
X11121786Y-13717500D01*
X11136071Y-13746071D01*
X11136071Y-13903214D01*
X11721786Y-13588929D02*
X11464643Y-13974643D01*
X12107500Y-13603214D02*
X12136071Y-13603214D01*
X12164643Y-13617500D01*
X12178928Y-13631786D01*
X12193214Y-13660357D01*
X12207500Y-13717500D01*
X12207500Y-13788929D01*
X12193214Y-13846071D01*
X12178928Y-13874643D01*
X12164643Y-13888929D01*
X12136071Y-13903214D01*
X12107500Y-13903214D01*
X12078928Y-13888929D01*
X12064643Y-13874643D01*
X12050357Y-13846071D01*
X12036071Y-13788929D01*
X12036071Y-13717500D01*
X12050357Y-13660357D01*
X12064643Y-13631786D01*
X12078928Y-13617500D01*
X12107500Y-13603214D01*
X12336071Y-13874643D02*
X12350357Y-13888929D01*
X12336071Y-13903214D01*
X12321786Y-13888929D01*
X12336071Y-13874643D01*
X12336071Y-13903214D01*
X12536071Y-13603214D02*
X12564643Y-13603214D01*
X12593214Y-13617500D01*
X12607500Y-13631786D01*
X12621786Y-13660357D01*
X12636071Y-13717500D01*
X12636071Y-13788929D01*
X12621786Y-13846071D01*
X12607500Y-13874643D01*
X12593214Y-13888929D01*
X12564643Y-13903214D01*
X12536071Y-13903214D01*
X12507500Y-13888929D01*
X12493214Y-13874643D01*
X12478928Y-13846071D01*
X12464643Y-13788929D01*
X12464643Y-13717500D01*
X12478928Y-13660357D01*
X12493214Y-13631786D01*
X12507500Y-13617500D01*
X12536071Y-13603214D01*
X12921786Y-13903214D02*
X12750357Y-13903214D01*
X12836071Y-13903214D02*
X12836071Y-13603214D01*
X12807500Y-13646071D01*
X12778928Y-13674643D01*
X12750357Y-13688929D01*
X13178928Y-13603214D02*
X13121786Y-13603214D01*
X13093214Y-13617500D01*
X13078928Y-13631786D01*
X13050357Y-13674643D01*
X13036071Y-13731786D01*
X13036071Y-13846071D01*
X13050357Y-13874643D01*
X13064643Y-13888929D01*
X13093214Y-13903214D01*
X13150357Y-13903214D01*
X13178928Y-13888929D01*
X13193214Y-13874643D01*
X13207500Y-13846071D01*
X13207500Y-13774643D01*
X13193214Y-13746071D01*
X13178928Y-13731786D01*
X13150357Y-13717500D01*
X13093214Y-13717500D01*
X13064643Y-13731786D01*
X13050357Y-13746071D01*
X13036071Y-13774643D01*
X13321786Y-13603214D02*
X13321786Y-13660357D01*
X13436071Y-13603214D02*
X13436071Y-13660357D01*
X13878928Y-14017500D02*
X13864643Y-14003214D01*
X13836071Y-13960357D01*
X13821786Y-13931786D01*
X13807500Y-13888929D01*
X13793214Y-13817500D01*
X13793214Y-13760357D01*
X13807500Y-13688929D01*
X13821786Y-13646071D01*
X13836071Y-13617500D01*
X13864643Y-13574643D01*
X13878928Y-13560357D01*
X13978928Y-13631786D02*
X13993214Y-13617500D01*
X14021786Y-13603214D01*
X14093214Y-13603214D01*
X14121786Y-13617500D01*
X14136071Y-13631786D01*
X14150357Y-13660357D01*
X14150357Y-13688929D01*
X14136071Y-13731786D01*
X13964643Y-13903214D01*
X14150357Y-13903214D01*
X14407500Y-13703214D02*
X14407500Y-13903214D01*
X14336071Y-13588929D02*
X14264643Y-13803214D01*
X14450357Y-13803214D01*
X14793214Y-13903214D02*
X14793214Y-13603214D01*
X14921786Y-13903214D02*
X14921786Y-13746071D01*
X14907500Y-13717500D01*
X14878928Y-13703214D01*
X14836071Y-13703214D01*
X14807500Y-13717500D01*
X14793214Y-13731786D01*
X15107500Y-13903214D02*
X15078928Y-13888929D01*
X15064643Y-13874643D01*
X15050357Y-13846071D01*
X15050357Y-13760357D01*
X15064643Y-13731786D01*
X15078928Y-13717500D01*
X15107500Y-13703214D01*
X15150357Y-13703214D01*
X15178928Y-13717500D01*
X15193214Y-13731786D01*
X15207500Y-13760357D01*
X15207500Y-13846071D01*
X15193214Y-13874643D01*
X15178928Y-13888929D01*
X15150357Y-13903214D01*
X15107500Y-13903214D01*
X15378928Y-13903214D02*
X15350357Y-13888929D01*
X15336071Y-13860357D01*
X15336071Y-13603214D01*
X15607500Y-13888929D02*
X15578928Y-13903214D01*
X15521786Y-13903214D01*
X15493214Y-13888929D01*
X15478928Y-13860357D01*
X15478928Y-13746071D01*
X15493214Y-13717500D01*
X15521786Y-13703214D01*
X15578928Y-13703214D01*
X15607500Y-13717500D01*
X15621786Y-13746071D01*
X15621786Y-13774643D01*
X15478928Y-13803214D01*
X15736071Y-13888929D02*
X15764643Y-13903214D01*
X15821786Y-13903214D01*
X15850357Y-13888929D01*
X15864643Y-13860357D01*
X15864643Y-13846071D01*
X15850357Y-13817500D01*
X15821786Y-13803214D01*
X15778928Y-13803214D01*
X15750357Y-13788929D01*
X15736071Y-13760357D01*
X15736071Y-13746071D01*
X15750357Y-13717500D01*
X15778928Y-13703214D01*
X15821786Y-13703214D01*
X15850357Y-13717500D01*
X15964643Y-14017500D02*
X15978928Y-14003214D01*
X16007500Y-13960357D01*
X16021786Y-13931786D01*
X16036071Y-13888929D01*
X16050357Y-13817500D01*
X16050357Y-13760357D01*
X16036071Y-13688929D01*
X16021786Y-13646071D01*
X16007500Y-13617500D01*
X15978928Y-13574643D01*
X15964643Y-13560357D01*
X9192500Y-14163500D02*
G75*
G03X9192500Y-14163500I-50000J0D01*
G01*
X9636071Y-14299214D02*
X9464643Y-14299214D01*
X9550357Y-14299214D02*
X9550357Y-13999214D01*
X9521786Y-14042071D01*
X9493214Y-14070643D01*
X9464643Y-14084929D01*
X9764643Y-14270643D02*
X9778928Y-14284929D01*
X9764643Y-14299214D01*
X9750357Y-14284929D01*
X9764643Y-14270643D01*
X9764643Y-14299214D01*
X9964643Y-13999214D02*
X9993214Y-13999214D01*
X10021786Y-14013500D01*
X10036071Y-14027786D01*
X10050357Y-14056357D01*
X10064643Y-14113500D01*
X10064643Y-14184929D01*
X10050357Y-14242071D01*
X10036071Y-14270643D01*
X10021786Y-14284929D01*
X9993214Y-14299214D01*
X9964643Y-14299214D01*
X9936071Y-14284929D01*
X9921786Y-14270643D01*
X9907500Y-14242071D01*
X9893214Y-14184929D01*
X9893214Y-14113500D01*
X9907500Y-14056357D01*
X9921786Y-14027786D01*
X9936071Y-14013500D01*
X9964643Y-13999214D01*
X10250357Y-13999214D02*
X10278928Y-13999214D01*
X10307500Y-14013500D01*
X10321786Y-14027786D01*
X10336071Y-14056357D01*
X10350357Y-14113500D01*
X10350357Y-14184929D01*
X10336071Y-14242071D01*
X10321786Y-14270643D01*
X10307500Y-14284929D01*
X10278928Y-14299214D01*
X10250357Y-14299214D01*
X10221786Y-14284929D01*
X10207500Y-14270643D01*
X10193214Y-14242071D01*
X10178928Y-14184929D01*
X10178928Y-14113500D01*
X10193214Y-14056357D01*
X10207500Y-14027786D01*
X10221786Y-14013500D01*
X10250357Y-13999214D01*
X10478928Y-14299214D02*
X10478928Y-14099214D01*
X10478928Y-14127786D02*
X10493214Y-14113500D01*
X10521786Y-14099214D01*
X10564643Y-14099214D01*
X10593214Y-14113500D01*
X10607500Y-14142071D01*
X10607500Y-14299214D01*
X10607500Y-14142071D02*
X10621786Y-14113500D01*
X10650357Y-14099214D01*
X10693214Y-14099214D01*
X10721786Y-14113500D01*
X10736071Y-14142071D01*
X10736071Y-14299214D01*
X10878928Y-14299214D02*
X10878928Y-14099214D01*
X10878928Y-14127786D02*
X10893214Y-14113500D01*
X10921786Y-14099214D01*
X10964643Y-14099214D01*
X10993214Y-14113500D01*
X11007500Y-14142071D01*
X11007500Y-14299214D01*
X11007500Y-14142071D02*
X11021786Y-14113500D01*
X11050357Y-14099214D01*
X11093214Y-14099214D01*
X11121786Y-14113500D01*
X11136071Y-14142071D01*
X11136071Y-14299214D01*
X11721786Y-13984929D02*
X11464643Y-14370643D01*
X12107500Y-13999214D02*
X12136071Y-13999214D01*
X12164643Y-14013500D01*
X12178928Y-14027786D01*
X12193214Y-14056357D01*
X12207500Y-14113500D01*
X12207500Y-14184929D01*
X12193214Y-14242071D01*
X12178928Y-14270643D01*
X12164643Y-14284929D01*
X12136071Y-14299214D01*
X12107500Y-14299214D01*
X12078928Y-14284929D01*
X12064643Y-14270643D01*
X12050357Y-14242071D01*
X12036071Y-14184929D01*
X12036071Y-14113500D01*
X12050357Y-14056357D01*
X12064643Y-14027786D01*
X12078928Y-14013500D01*
X12107500Y-13999214D01*
X12336071Y-14270643D02*
X12350357Y-14284929D01*
X12336071Y-14299214D01*
X12321786Y-14284929D01*
X12336071Y-14270643D01*
X12336071Y-14299214D01*
X12536071Y-13999214D02*
X12564643Y-13999214D01*
X12593214Y-14013500D01*
X12607500Y-14027786D01*
X12621786Y-14056357D01*
X12636071Y-14113500D01*
X12636071Y-14184929D01*
X12621786Y-14242071D01*
X12607500Y-14270643D01*
X12593214Y-14284929D01*
X12564643Y-14299214D01*
X12536071Y-14299214D01*
X12507500Y-14284929D01*
X12493214Y-14270643D01*
X12478928Y-14242071D01*
X12464643Y-14184929D01*
X12464643Y-14113500D01*
X12478928Y-14056357D01*
X12493214Y-14027786D01*
X12507500Y-14013500D01*
X12536071Y-13999214D01*
X12736071Y-13999214D02*
X12921786Y-13999214D01*
X12821786Y-14113500D01*
X12864643Y-14113500D01*
X12893214Y-14127786D01*
X12907500Y-14142071D01*
X12921786Y-14170643D01*
X12921786Y-14242071D01*
X12907500Y-14270643D01*
X12893214Y-14284929D01*
X12864643Y-14299214D01*
X12778928Y-14299214D01*
X12750357Y-14284929D01*
X12736071Y-14270643D01*
X13064643Y-14299214D02*
X13121786Y-14299214D01*
X13150357Y-14284929D01*
X13164643Y-14270643D01*
X13193214Y-14227786D01*
X13207500Y-14170643D01*
X13207500Y-14056357D01*
X13193214Y-14027786D01*
X13178928Y-14013500D01*
X13150357Y-13999214D01*
X13093214Y-13999214D01*
X13064643Y-14013500D01*
X13050357Y-14027786D01*
X13036071Y-14056357D01*
X13036071Y-14127786D01*
X13050357Y-14156357D01*
X13064643Y-14170643D01*
X13093214Y-14184929D01*
X13150357Y-14184929D01*
X13178928Y-14170643D01*
X13193214Y-14156357D01*
X13207500Y-14127786D01*
X13321786Y-13999214D02*
X13321786Y-14056357D01*
X13436071Y-13999214D02*
X13436071Y-14056357D01*
X13878928Y-14413500D02*
X13864643Y-14399214D01*
X13836071Y-14356357D01*
X13821786Y-14327786D01*
X13807500Y-14284929D01*
X13793214Y-14213500D01*
X13793214Y-14156357D01*
X13807500Y-14084929D01*
X13821786Y-14042071D01*
X13836071Y-14013500D01*
X13864643Y-13970643D01*
X13878928Y-13956357D01*
X13978928Y-14027786D02*
X13993214Y-14013500D01*
X14021786Y-13999214D01*
X14093214Y-13999214D01*
X14121786Y-14013500D01*
X14136071Y-14027786D01*
X14150357Y-14056357D01*
X14150357Y-14084929D01*
X14136071Y-14127786D01*
X13964643Y-14299214D01*
X14150357Y-14299214D01*
X14507500Y-14299214D02*
X14507500Y-13999214D01*
X14636071Y-14299214D02*
X14636071Y-14142071D01*
X14621786Y-14113500D01*
X14593214Y-14099214D01*
X14550357Y-14099214D01*
X14521786Y-14113500D01*
X14507500Y-14127786D01*
X14821786Y-14299214D02*
X14793214Y-14284929D01*
X14778928Y-14270643D01*
X14764643Y-14242071D01*
X14764643Y-14156357D01*
X14778928Y-14127786D01*
X14793214Y-14113500D01*
X14821786Y-14099214D01*
X14864643Y-14099214D01*
X14893214Y-14113500D01*
X14907500Y-14127786D01*
X14921786Y-14156357D01*
X14921786Y-14242071D01*
X14907500Y-14270643D01*
X14893214Y-14284929D01*
X14864643Y-14299214D01*
X14821786Y-14299214D01*
X15093214Y-14299214D02*
X15064643Y-14284929D01*
X15050357Y-14256357D01*
X15050357Y-13999214D01*
X15321786Y-14284929D02*
X15293214Y-14299214D01*
X15236071Y-14299214D01*
X15207500Y-14284929D01*
X15193214Y-14256357D01*
X15193214Y-14142071D01*
X15207500Y-14113500D01*
X15236071Y-14099214D01*
X15293214Y-14099214D01*
X15321786Y-14113500D01*
X15336071Y-14142071D01*
X15336071Y-14170643D01*
X15193214Y-14199214D01*
X15450357Y-14284929D02*
X15478928Y-14299214D01*
X15536071Y-14299214D01*
X15564643Y-14284929D01*
X15578928Y-14256357D01*
X15578928Y-14242071D01*
X15564643Y-14213500D01*
X15536071Y-14199214D01*
X15493214Y-14199214D01*
X15464643Y-14184929D01*
X15450357Y-14156357D01*
X15450357Y-14142071D01*
X15464643Y-14113500D01*
X15493214Y-14099214D01*
X15536071Y-14099214D01*
X15564643Y-14113500D01*
X15678928Y-14413500D02*
X15693214Y-14399214D01*
X15721786Y-14356357D01*
X15736071Y-14327786D01*
X15750357Y-14284929D01*
X15764643Y-14213500D01*
X15764643Y-14156357D01*
X15750357Y-14084929D01*
X15736071Y-14042071D01*
X15721786Y-14013500D01*
X15693214Y-13970643D01*
X15678928Y-13956357D01*
M02*
